<svg id="Layer_1" data-name="Layer 1" xmlns="http://www.w3.org/2000/svg" viewBox="0 0 199.62 194.7"><defs><style>.cls-1,.cls-2{fill:#f8f8ff;}.cls-1{fill-rule:evenodd;}</style></defs><path class="cls-1" d="M99.81,4.52A99.82,99.82,0,0,0,68.25,199c5,.93,6.81-2.16,6.81-4.8,0-2.38-.09-10.24-.13-18.59-27.77,6-33.63-11.77-33.63-11.77-4.54-11.53-11.09-14.6-11.09-14.6-9-6.19.69-6.06.69-6.06,10,.7,15.3,10.29,15.3,10.29,8.91,15.26,23.34,10.85,29.05,8.3.89-6.45,3.47-10.85,6.34-13.34-22.18-2.54-45.48-11.09-45.48-49.33A38.62,38.62,0,0,1,46.4,72.34c-1-2.52-4.45-12.66,1-26.41,0,0,8.39-2.68,27.46,10.24a94.65,94.65,0,0,1,50,0c19.05-12.92,27.42-10.24,27.42-10.24,5.44,13.75,2,23.89,1,26.41a38.53,38.53,0,0,1,10.28,26.79c0,38.33-23.34,46.78-45.57,49.25,3.58,3.11,6.76,9.17,6.76,18.48,0,13.36-.11,24.1-.11,27.39,0,2.66,1.79,5.76,6.86,4.78A99.83,99.83,0,0,0,99.81,4.52Z" transform="translate(0 -4.52)"/><path class="cls-2" d="M37.81,147.83c-.22.5-1,.64-1.72.31s-1.13-1-.89-1.5,1-.64,1.72-.31,1.13,1,.89,1.5Z" transform="translate(0 -4.52)"/><path class="cls-2" d="M41.86,152.34c-.48.44-1.41.24-2-.47s-.77-1.62-.29-2.07,1.38-.24,2,.47a1.52,1.52,0,0,1,.28,2.07Z" transform="translate(0 -4.52)"/><path class="cls-2" d="M45.77,158.08c-.61.43-1.6,0-2.23-.87a1.73,1.73,0,0,1,0-2.38c.61-.42,1.6,0,2.23.83s.61,2,0,2.42Z" transform="translate(0 -4.52)"/><path class="cls-2" d="M51.17,163.63c-.55.61-1.72.44-2.57-.39a1.93,1.93,0,0,1-.57-2.55c.55-.61,1.72-.44,2.59.39s1.14,2,.55,2.55Z" transform="translate(0 -4.52)"/><path class="cls-2" d="M58.62,166.86c-.24.78-1.37,1.13-2.5.8s-1.86-1.26-1.64-2.06,1.37-1.16,2.49-.79,1.87,1.26,1.65,2.05Z" transform="translate(0 -4.52)"/><path class="cls-2" d="M66.79,167.45c0,.83-.93,1.5-2.13,1.52s-2.16-.65-2.18-1.44S63.42,166,64.6,166s2.19.65,2.19,1.46Z" transform="translate(0 -4.52)"/><path class="cls-2" d="M74.38,166.16c.15.79-.68,1.62-1.87,1.85s-2.23-.28-2.38-1.08.7-1.64,1.85-1.86,2.25.28,2.4,1.09Z" transform="translate(0 -4.52)"/></svg>