<svg id="Layer_4" data-name="Layer 4" xmlns="http://www.w3.org/2000/svg" viewBox="0 0 200 200"><defs><style>.cls-1{fill:#f8f8ff;fill-rule:evenodd;}</style></defs><path class="cls-1" d="M100,0A100,100,0,1,1,0,100,100,100,0,0,1,100,0Zm0,37.5c-17,0-19.11.07-25.78.37a45.25,45.25,0,0,0-15.16,2.91A31.82,31.82,0,0,0,40.78,59.06a46.38,46.38,0,0,0-2.91,15.16c-.3,6.67-.37,8.8-.37,25.78s.07,19.11.37,25.78a45.25,45.25,0,0,0,2.91,15.16,31.82,31.82,0,0,0,18.28,18.28,46.38,46.38,0,0,0,15.16,2.91c6.67.3,8.8.37,25.78.37s19.11-.07,25.78-.37a45.25,45.25,0,0,0,15.16-2.91,31.82,31.82,0,0,0,18.28-18.28,46.38,46.38,0,0,0,2.91-15.16c.3-6.67.37-8.8.37-25.78s-.07-19.11-.37-25.78a45.25,45.25,0,0,0-2.91-15.16,31.82,31.82,0,0,0-18.28-18.28,46.38,46.38,0,0,0-15.16-2.91C119.11,37.57,117,37.5,100,37.5Zm0,11.26c16.69,0,18.67.05,25.26.37a34.85,34.85,0,0,1,11.61,2.15,20.52,20.52,0,0,1,11.85,11.85,34.85,34.85,0,0,1,2.15,11.61c.3,6.59.37,8.57.37,25.26s-.05,18.67-.37,25.26a34.85,34.85,0,0,1-2.15,11.61,20.52,20.52,0,0,1-11.85,11.85,34.85,34.85,0,0,1-11.61,2.15c-6.59.3-8.57.37-25.26.37s-18.67-.05-25.26-.37a34.85,34.85,0,0,1-11.61-2.15,19.3,19.3,0,0,1-7.19-4.66,19.54,19.54,0,0,1-4.66-7.21,34.85,34.85,0,0,1-2.15-11.61c-.3-6.59-.37-8.57-.37-25.26s.05-18.67.37-25.26a34.85,34.85,0,0,1,2.15-11.61A20.59,20.59,0,0,1,63.13,51.26a34.85,34.85,0,0,1,11.61-2.15c6.59-.28,8.57-.35,25.26-.35Zm0,19.15A32.09,32.09,0,1,0,132.09,100,32.09,32.09,0,0,0,100,67.91Zm0,52.92A20.83,20.83,0,1,1,120.83,100,20.84,20.84,0,0,1,100,120.83Zm40.87-54.2a7.5,7.5,0,1,1-7.5-7.5A7.49,7.49,0,0,1,140.87,66.63Z"/></svg>