<svg id="Layer_2" data-name="Layer 2" xmlns="http://www.w3.org/2000/svg" viewBox="0 0 200 200"><defs><style>.cls-1{fill:#f8f8ff;fill-rule:evenodd;}</style></defs><path class="cls-1" d="M100,0A100,100,0,1,1,0,100,100,100,0,0,1,100,0ZM68.74,156.2V78.11h-26V156.2Zm93.59,0V111.41c0-24-12.81-35.15-29.89-35.15-13.77,0-19.94,7.57-23.38,12.89V78.09h-26c.35,7.34,0,78.1,0,78.1h26v-43.6a17.69,17.69,0,0,1,.85-6.33c1.87-4.67,6.15-9.5,13.31-9.5,9.39,0,13.15,7.17,13.15,17.67V156.2ZM55.93,40.44c-8.89,0-14.69,5.84-14.69,13.5,0,7.5,5.63,13.5,14.33,13.5h.17c9.06,0,14.69-6,14.69-13.5-.15-7.64-5.62-13.5-14.5-13.5Z" transform="translate(0)"/></svg>