<svg id="Layer_3" data-name="Layer 3" xmlns="http://www.w3.org/2000/svg" viewBox="0 0 200 200"><defs><style>.cls-1{fill:#f8f8ff;fill-rule:evenodd;}</style></defs><path class="cls-1" d="M100,0A100,100,0,1,1,0,100,100,100,0,0,1,100,0Zm55.94,80.41q-.76,17.1-23.9,46.85-23.89,31.05-40.45,31.05-10.25,0-17.33-18.9L64.8,104.72Q59.55,85.81,53.5,85.81c-.87,0-3.94,1.86-9.2,5.52l-5.52-7.09C44.56,79.17,50.26,74.07,55.87,69Q67.45,59,73.24,58.48q13.67-1.3,16.83,18.71c2.28,14.38,3.86,23.35,4.74,26.85q3.94,17.91,8.69,17.9,3.66,0,11.06-11.63t7.88-17.68q1.07-10-7.88-10a21.78,21.78,0,0,0-8.67,1.93q8.64-28.27,33-27.5,18.11.46,17.05,23.39Z" transform="translate(0 0)"/></svg>